<?xml version="1.0" encoding="UTF-8"?> <!-- Generator: Adobe Illustrator 23.0.3, SVG Export Plug-In . SVG Version: 6.00 Build 0) --> <svg xmlns="http://www.w3.org/2000/svg" xmlns:xlink="http://www.w3.org/1999/xlink" id="Слой_1" x="0px" y="0px" viewBox="0 0 961.45 265.38" style="enable-background:new 0 0 961.45 265.38;" xml:space="preserve"> <style type="text/css"> .st0{fill:#C7AC69;} .st1{fill:#FFFFFF;} </style> <g> <path class="st0" d="M0,50.49c0,0,241.38-63.73,297.1,38.42c0,0,157.86-30.3,169.4,88.83c0,0-33.77-67.61-178.97-63.72 C287.53,114.02,231.12,50.49,0,50.49z"></path> <g> <path class="st0" d="M302.43,79.41c6.6-0.93,20.1-2.27,34.39-1.85C356.24,39.71,400.39,0.7,400.39,0.7 c-36.66-4.58-73.26,14.19-100.6,34.01c-8.5,6.16-14.37,11.81-21.42,19.47C288.38,61.32,295.72,69.1,302.43,79.41z"></path> <path class="st0" d="M282.96,122.79L282.96,122.79L282.96,122.79c-0.16-0.18-10.98-13.46-36.7-23.61c-1.25,2.4-2.15,4.38-3.3,6.83 c-35.3,75.68-177.03,159.37-177.03,159.37c97.33-18.6,169.85-67.15,212.65-103.45c13.7-11.62,25.03-23.83,34.48-38.96 C305.02,122.49,292.24,122.54,282.96,122.79z"></path> </g> </g> <g> <path class="st1" d="M600.95,97.59c5.55,3.27,7.62,8.89,6.21,16.86c-0.59,3.36-1.94,6.38-4.05,9.06c-2.11,2.69-4.87,4.66-8.28,5.91 c4.51,1.51,7.87,3.9,10.06,7.17c2.19,3.27,2.85,7.38,1.98,12.33c-1.51,8.56-5.71,14.66-12.6,18.31 c-6.89,3.65-14.99,5.47-24.31,5.47h-32.71c-1.26,0-2.27-0.44-3.04-1.32c-0.77-0.88-1.04-1.95-0.82-3.21l12.51-70.96 c0.22-1.26,0.87-2.33,1.95-3.21c1.08-0.88,2.25-1.32,3.5-1.32h29.82C588.82,92.68,595.41,94.32,600.95,97.59z M554.45,100.86 l-4.53,25.67h25.67c6.04,0,11.09-0.94,15.16-2.83c4.06-1.89,6.48-4.97,7.23-9.25c0.86-4.86-0.69-8.35-4.64-10.44 c-3.95-2.1-8.48-3.15-13.6-3.15H554.45z M548.48,134.71l-5.26,29.82h28.18c6.63,0,12.36-1.15,17.22-3.46 c4.85-2.31,7.79-6.35,8.81-12.14c0.84-4.78-0.33-8.35-3.52-10.7c-3.19-2.35-7.68-3.52-13.47-3.52H548.48z"></path> <path class="st1" d="M633.31,93.88c1.06-0.8,2.22-1.2,3.48-1.2c1.34,0,2.4,0.4,3.19,1.2c0.78,0.8,1.04,1.95,0.77,3.46l-12.51,70.96 c-0.24,1.34-0.91,2.41-2.01,3.21c-1.11,0.8-2.29,1.2-3.54,1.2c-1.26,0-2.28-0.38-3.07-1.13c-0.79-0.75-1.06-1.84-0.81-3.27 l12.51-70.96C631.59,95.83,632.25,94.67,633.31,93.88z"></path> <path class="st1" d="M722.57,93.94c0.65,0.84,0.87,1.85,0.66,3.02c-0.22,1.26-0.81,2.31-1.75,3.15c-0.95,0.84-2.17,1.26-3.68,1.26 h-28.06l-11.63,66.69c-0.25,1.43-0.95,2.56-2.11,3.4c-1.15,0.84-2.32,1.26-3.49,1.26c-1.18,0-2.15-0.4-2.93-1.2 c-0.78-0.8-1.04-1.95-0.77-3.46l11.76-66.69h-27.93c-1.34,0-2.33-0.44-2.98-1.32c-0.64-0.88-0.86-1.91-0.65-3.08 c0.21-1.17,0.78-2.18,1.73-3.02c0.94-0.84,2.09-1.26,3.43-1.26h65.18C720.84,92.68,721.92,93.1,722.57,93.94z"></path> <path class="st1" d="M721.52,168.05l12.51-70.96c0.25-1.43,0.9-2.52,1.96-3.27c1.05-0.75,2.21-1.13,3.47-1.13 c1.26,0,2.28,0.38,3.07,1.13c0.79,0.75,1.06,1.85,0.81,3.27l-11.87,67.31h47.06c1.51,0,2.61,0.4,3.31,1.2 c0.7,0.8,0.94,1.78,0.74,2.96c-0.19,1.09-0.78,2.06-1.77,2.89c-0.99,0.84-2.23,1.26-3.74,1.26h-51.59 C722.29,172.7,720.97,171.15,721.52,168.05z"></path> <path class="st1" d="M868.06,92.62c1.06-0.8,2.27-1.19,3.61-1.19c1.26,0,2.28,0.4,3.06,1.19c0.78,0.8,1.05,1.91,0.8,3.33 l-7.34,41.65c-1.36,7.72-4.29,14.32-8.78,19.82c-4.49,5.49-9.81,9.62-15.96,12.39c-6.15,2.77-12.41,4.15-18.79,4.15 c-6.38,0-12.15-1.38-17.32-4.15c-5.17-2.77-9.04-6.9-11.59-12.39c-2.55-5.49-3.15-12.1-1.79-19.82l7.41-42.02 c0.24-1.34,0.88-2.37,1.93-3.08c1.05-0.71,2.2-1.07,3.46-1.07c1.34,0,2.41,0.38,3.2,1.13c0.79,0.75,1.07,1.8,0.83,3.15l-7.39,41.9 c-1.02,5.79-0.59,10.74,1.28,14.85c1.87,4.11,4.75,7.22,8.61,9.31c3.86,2.1,8.19,3.15,12.97,3.15c4.78,0,9.47-1.05,14.08-3.15 c4.6-2.1,8.57-5.2,11.9-9.31c3.32-4.11,5.5-9.06,6.52-14.85l7.32-41.52C866.34,94.57,867,93.42,868.06,92.62z"></path> <path class="st1" d="M953.82,94.32c1.2-1.09,2.43-1.64,3.69-1.64c1.17,0,2.17,0.44,2.98,1.32c0.81,0.88,1.11,1.91,0.9,3.08 c-0.16,0.92-0.7,1.85-1.62,2.77l-33.69,31.96l23.31,33.34c0.72,1.18,0.97,2.35,0.76,3.52c-0.19,1.09-0.76,2.03-1.69,2.83 c-0.94,0.8-1.99,1.2-3.17,1.2c-1.51,0-2.82-0.67-3.92-2.01l-22.1-32.34l-34.03,32.46c-1.4,1.26-2.81,1.89-4.23,1.89 c-1.18,0-2.11-0.42-2.8-1.26c-0.69-0.84-0.94-1.8-0.75-2.89c0.22-1.26,0.88-2.39,1.98-3.4l35.07-33.34L892.25,99.6 c-0.54-0.75-0.72-1.64-0.54-2.64c0.19-1.09,0.85-2.08,1.97-2.96c1.12-0.88,2.27-1.32,3.44-1.32c1.26,0,2.26,0.5,3,1.51l21.36,31.58 L953.82,94.32z"></path> </g> </svg> 